# xmcd
#
# Track frame offsets:
#	150
#	9861
#	19419
#	31694
#	40486
#	51284
#	62723
#	79627
#	88466
#	101123
#	113287
#	122443
#	135665
#	145098
#	156950
#	165203
#	177655
#
# Disc length: 2560 seconds
#
# Revision: 1
# Processed by: cddbd v1.5.2PL0 Copyright (c) Steve Scherf et al.
# Submitted via: audiograbber 1.83.01
#
DISCID=d609fe11
DTITLE=Rastkogl-Duo - Ein Strauﬂ Vergiﬂmeinnicht
DYEAR=1900
DGENRE=
TTITLE0=Ein Gruﬂ vom schˆnen Zillertal
TTITLE1=Singen wir a Liadl
TTITLE2=Freilich so a Boarischer
TTITLE3=Bei uns im Zillertal
TTITLE4=Wenn wir erklimmen
TTITLE5=Rastkogel L‰ndler
TTITLE6=Nur einen Sommer lang
TTITLE7=Heit hob i frei
TTITLE8=Ein Strauﬂ Vergiﬂmeinnicht
TTITLE9=Drachenflieger Polka
TTITLE10=Kofl Boarischer
TTITLE11=Wenn die Musikanten spielen
TTITLE12=Juchhee bald kimmt a Schnee
TTITLE13=ABC, kleine Fee
TTITLE14=Zillertaler Hochzeitsmarsch
TTITLE15=Wildschˆnauer Lied
TTITLE16=Adios Amor (Hafensolo)
EXTD=
EXTT0=
EXTT1=
EXTT2=
EXTT3=
EXTT4=
EXTT5=
EXTT6=
EXTT7=
EXTT8=
EXTT9=
EXTT10=
EXTT11=
EXTT12=
EXTT13=
EXTT14=
EXTT15=
EXTT16=
PLAYORDER=
